# xmcd
#
# Track frame offsets:
#	150
#	10810
#	20154
#	35185
#	46148
#	57172
#	69273
#	79807
#	94040
#	105062
#	118754
#	129826
#	141712
#	160178
#	170327
#	182497
#	194647
#	204541
#	214486
#	232620
#
# Disc length: 3313 seconds
#
# Revision: 0
# Processed by: cddbd v1.5.1PL0 Copyright (c) Steve Scherf et al.
# Submitted via: dBpowerAMP V4.0
#
DISCID=110cef14
DTITLE=Various Artist - Hee Haw Country
DYEAR=2005
DGENRE=Country
TTITLE0=Act Naturally - Buck Owens
TTITLE1=Kiss An Angel Good Mornin' - Charley Pride
TTITLE2=Yesterday, When I Was Young - Roy Clark
TTITLE3=That's My Pa - Sheb Wooley
TTITLE4=Hello Darlin' - Conway Twitty
TTITLE5=Jolene - Dolly Parton
TTITLE6=Eight More Miles To Louisville - Grandpa Jones
TTITLE7=The Grand Tour - George Jones
TTITLE8=John Henry - Stringbean
TTITLE9=Coal Miner's Daughter - Loretta Lynn
TTITLE10=Gotta Get To Oklahoma ('Cause California's Gettin' To Me) - The Haggers
TTITLE11=Wabash Cannonball - Roy Acuff
TTITLE12=Giddyup Go - Answer - Minnie Pearl
TTITLE13=Rolling In My Sweet Baby's Arms - The Stonemans
TTITLE14=Stand By Your Man - Tammy Wynette
TTITLE15=Riders In The Sky - Roy Clark
TTITLE16=I've Got A Tiger By The Tail - Buck Owens
TTITLE17=Mountain Dew - Grandpa Jones
TTITLE18=One Piece At A Time - Johnny Cash
TTITLE19=World's Biggest Whopper - Junior Samples
EXTD=
EXTT0=
EXTT1=
EXTT2=
EXTT3=
EXTT4=
EXTT5=
EXTT6=
EXTT7=
EXTT8=
EXTT9=
EXTT10=
EXTT11=
EXTT12=
EXTT13=
EXTT14=
EXTT15=
EXTT16=
EXTT17=
EXTT18=
EXTT19=
PLAYORDER=
